<?xml version="1.0" standalone="no"?>
<!DOCTYPE svg PUBLIC "-//W3C//DTD SVG 20010904//EN"
 "http://www.w3.org/TR/2001/REC-SVG-20010904/DTD/svg10.dtd">
<svg version="1.0" xmlns="http://www.w3.org/2000/svg"
 width="966.000000pt" height="962.000000pt" viewBox="0 0 966.000000 962.000000"
 preserveAspectRatio="xMidYMid meet">

<g transform="translate(0.000000,962.000000) scale(0.100000,-0.100000)"
fill="#000000" stroke="none">
<path d="M0 4810 l0 -4810 4830 0 4830 0 0 4810 0 4810 -4830 0 -4830 0 0
-4810z m3665 2360 l0 -255 -27 -3 -28 -3 -2 228 -3 228 -45 0 c-38 0 -45 3
-48 21 -3 18 5 22 60 31 35 5 70 9 78 9 13 -1 15 -37 15 -256z m445 237 c66
-44 75 -74 75 -242 0 -133 -2 -154 -21 -185 -62 -107 -194 -104 -249 5 -28 56
-34 262 -10 334 32 99 129 140 205 88z m390 -238 l0 -260 -27 3 -28 3 -3 229
-2 229 -45 -6 c-27 -4 -46 -3 -46 3 -1 6 -2 15 -3 22 -1 10 69 28 142 37 9 1
12 -57 12 -260z m440 240 c68 -39 80 -75 80 -245 -1 -169 -10 -202 -69 -241
-60 -41 -148 -24 -191 37 -49 68 -47 347 3 411 21 27 80 59 111 59 15 0 45
-10 66 -21z m395 -240 l0 -254 -27 -3 -28 -3 -2 228 -3 228 -45 0 c-39 0 -45
3 -48 23 -3 19 1 22 35 23 21 1 52 5 68 9 17 4 35 7 40 5 6 -1 10 -94 10 -256z
m-605 -473 c200 -42 345 -99 480 -189 284 -189 443 -416 505 -722 21 -106 22
-331 0 -454 -32 -187 -99 -348 -204 -490 -65 -89 -106 -163 -136 -250 -52
-148 -55 -181 -55 -631 0 -367 -2 -421 -16 -434 -17 -18 -24 -19 -48 -10 -14
5 -16 55 -16 456 0 423 1 454 21 535 36 147 81 241 179 378 99 139 140 228
178 385 78 324 35 609 -130 857 -132 199 -348 357 -603 441 -49 16 -117 35
-150 41 -33 7 -80 17 -105 23 -71 15 -374 12 -450 -6 -78 -18 -128 -31 -155
-41 -265 -93 -496 -300 -584 -521 -54 -139 -62 -235 -51 -629 4 -128 2 -145
-19 -198 -12 -31 -37 -79 -55 -105 -18 -26 -63 -90 -99 -144 -37 -53 -67 -103
-67 -112 0 -18 49 -46 80 -46 32 0 78 -27 85 -51 4 -11 4 -37 0 -56 -5 -28 -2
-40 16 -59 18 -19 21 -30 15 -63 -5 -33 -3 -42 13 -51 48 -25 51 -36 51 -159
0 -106 2 -122 23 -152 12 -19 40 -43 61 -53 36 -17 47 -18 126 -8 180 24 261
14 344 -45 93 -66 121 -128 141 -323 25 -233 18 -300 -30 -300 -33 0 -45 42
-45 152 0 123 -15 244 -37 306 -20 53 -86 114 -144 131 -33 10 -70 10 -183 0
-128 -11 -146 -11 -193 5 -54 18 -97 57 -130 119 -13 24 -17 57 -18 140 0 59
-3 107 -7 107 -3 0 -20 14 -38 31 -25 26 -30 38 -29 73 1 27 -5 53 -20 77 -17
30 -20 42 -11 63 7 20 7 28 -3 30 -114 32 -147 62 -147 134 0 36 13 61 96 184
133 197 147 229 146 348 0 52 -5 127 -11 165 -19 123 -14 209 20 375 30 146
98 285 181 375 15 17 28 33 28 37 0 10 149 135 208 175 141 93 325 160 517
187 17 3 104 3 195 1 125 -3 193 -10 280 -29z m-386 -412 c3 -9 6 -46 6 -84 0
-82 -18 -111 -54 -87 -18 12 -21 26 -24 87 -2 44 2 77 9 86 16 19 55 18 63 -2z
m214 -76 c2 -77 1 -88 -16 -97 -14 -7 -25 -6 -40 5 -19 13 -22 25 -22 80 0 81
12 106 48 102 27 -3 27 -4 30 -90z m210 80 c7 -7 12 -41 12 -84 0 -63 -3 -75
-22 -88 -15 -11 -26 -12 -40 -5 -15 8 -18 22 -18 84 0 40 3 80 6 89 7 19 45
21 62 4z m-614 -310 c8 -13 8 -23 0 -35 -9 -15 -26 -18 -95 -18 -80 0 -84 1
-87 23 -6 43 14 53 96 50 58 -2 77 -7 86 -20z m928 -3 c20 -44 -2 -56 -96 -53
-76 3 -81 4 -84 26 -6 41 14 52 94 52 69 0 75 -2 86 -25z m-327 -230 l0 -230
-230 0 -230 0 -3 171 -2 170 37 20 c23 12 47 37 61 62 l24 42 171 -2 172 -3 0
-230z m-597 6 c5 -36 -22 -51 -93 -51 -71 0 -98 15 -93 51 3 21 9 25 53 29 28
3 68 3 90 0 33 -4 41 -9 43 -29z m926 12 c17 -43 -13 -63 -94 -63 -76 0 -92 8
-88 43 4 37 21 43 112 39 47 -3 66 -8 70 -19z m-1420 -45 c3 -13 7 -68 10
-123 18 -384 264 -655 696 -767 115 -29 382 -32 475 -4 91 28 119 30 135 12
25 -31 -1 -59 -71 -80 -81 -24 -209 -46 -274 -46 -59 0 -242 25 -300 40 -22 6
-53 15 -70 19 -139 38 -329 148 -429 247 -93 94 -191 262 -216 374 -7 30 -16
68 -21 84 -10 33 -12 226 -3 250 4 10 18 16 35 16 22 0 30 -5 33 -22z m480
-154 c19 -7 21 -45 4 -62 -7 -7 -41 -12 -83 -12 -42 0 -76 5 -83 12 -16 16
-15 55 1 61 18 8 143 8 161 1z m940 -16 c21 -34 -4 -53 -75 -56 -90 -4 -109 2
-109 37 0 37 9 40 99 38 58 -2 76 -6 85 -19z m-750 -184 c12 -11 16 -36 16
-90 0 -69 -2 -75 -25 -86 -42 -19 -55 2 -55 92 0 78 2 82 47 99 1 1 9 -6 17
-15z m224 -83 c2 -61 -1 -87 -10 -92 -41 -26 -68 6 -68 82 0 76 12 101 48 97
27 -3 27 -4 30 -87z m206 83 c13 -5 16 -22 16 -85 0 -69 -3 -80 -20 -89 -12
-6 -30 -8 -40 -5 -18 6 -20 16 -20 89 0 45 3 86 7 89 8 9 36 9 57 1z m3394
-2722 c2 -340 2 -344 -20 -384 -14 -24 -41 -51 -68 -66 -43 -26 -54 -27 -199
-30 -199 -5 -233 0 -281 44 -62 56 -72 97 -68 266 3 137 4 147 30 185 16 25
43 48 73 62 42 20 59 21 192 19 l147 -3 -1 -52 c-1 -29 -1 -60 -2 -68 -1 -13
-23 -15 -139 -15 -94 0 -142 -4 -150 -12 -8 -8 -12 -53 -12 -134 0 -98 3 -126
16 -138 13 -13 42 -16 160 -16 81 0 154 5 165 10 18 10 19 25 19 339 0 180 3
331 7 335 4 4 34 6 68 4 l60 -3 3 -343z m-2908 285 c90 -33 154 -90 192 -172
21 -46 23 -64 23 -210 0 -155 -1 -162 -28 -217 -32 -65 -89 -121 -156 -152
-42 -19 -63 -21 -231 -21 -162 0 -190 2 -225 19 -73 35 -123 83 -155 150 -29
61 -30 68 -31 215 0 163 6 197 53 268 33 50 76 84 138 112 39 17 68 20 215 20
114 1 182 -4 205 -12z m-3852 -57 c4 -77 -2 -80 -169 -80 -116 0 -138 -2 -143
-16 -3 -9 -6 -150 -6 -315 l0 -299 -65 0 -65 0 -2 313 -3 312 -150 5 -150 5
-3 54 c-2 29 -1 60 2 67 5 12 69 14 378 12 l373 -3 3 -55z m1774 -32 l3 -93
123 -3 122 -3 0 -63 c0 -49 -4 -65 -16 -70 -9 -3 -65 -6 -125 -6 l-109 0 0
-220 0 -221 -67 3 -68 3 -3 217 -2 217 -88 3 -87 3 -3 68 -3 67 91 0 90 0 0
88 c0 49 3 92 7 95 3 4 35 7 69 7 l63 0 3 -92z m1386 25 l-3 -68 -147 -3 -148
-3 0 -309 0 -310 -23 -5 c-13 -4 -43 -5 -68 -3 l-44 3 -5 310 -5 310 -150 5
-150 5 -3 68 -3 67 376 0 376 0 -3 -67z m2100 3 c2 -41 -1 -62 -10 -67 -7 -5
-126 -9 -265 -9 -215 0 -254 -2 -267 -16 -14 -13 -16 -48 -16 -227 0 -117 5
-219 10 -227 8 -13 54 -16 277 -20 l268 -5 0 -65 0 -65 -280 0 c-274 0 -281 0
-320 23 -22 13 -52 39 -65 59 -25 36 -25 40 -28 274 -3 261 2 297 47 348 51
57 76 61 376 58 l270 -2 3 -59z m-4715 -146 c23 -12 55 -38 71 -61 24 -34 29
-51 29 -103 1 -79 -31 -140 -91 -174 -38 -21 -50 -22 -194 -20 l-153 3 0 60 0
60 142 5 c127 4 144 7 157 25 19 25 19 45 0 70 -13 18 -29 20 -168 23 -200 4
-196 8 -196 -158 0 -156 -3 -153 179 -160 l136 -5 0 -60 0 -60 -155 0 c-175 0
-196 6 -254 78 l-31 39 0 166 c0 167 0 167 28 209 49 72 84 82 285 83 153 0
177 -2 215 -20z m419 -62 l77 -83 76 83 77 82 90 0 c50 0 88 -4 86 -9 -1 -5
-52 -64 -113 -131 -60 -67 -111 -126 -113 -130 -3 -8 23 -37 191 -217 37 -40
65 -78 62 -83 -3 -6 -44 -10 -90 -10 -82 0 -84 1 -111 33 -15 17 -55 63 -90
100 l-63 69 -23 -24 c-13 -13 -56 -59 -96 -101 l-72 -77 -85 0 c-57 0 -85 4
-85 11 0 7 39 54 88 106 48 51 106 117 130 144 l42 51 -92 100 c-51 55 -106
116 -121 134 l-28 34 93 0 93 0 77 -82z m4952 52 c74 -47 86 -83 86 -265 0
-137 -2 -153 -23 -190 -14 -24 -40 -50 -67 -65 -44 -24 -51 -25 -230 -25 -175
0 -187 1 -225 23 -22 13 -51 40 -65 60 -24 36 -25 43 -25 202 0 159 1 166 25
200 56 80 83 88 296 89 l180 1 48 -30z m1522 -2 c67 -46 86 -86 82 -170 -3
-57 -8 -73 -34 -105 -52 -65 -78 -73 -252 -73 l-153 0 3 63 3 62 136 5 c149 5
169 13 169 61 0 50 -27 59 -185 59 -191 0 -185 5 -185 -154 0 -167 -7 -160
170 -164 l141 -4 -3 -61 -3 -62 -155 0 c-145 0 -157 2 -192 23 -63 39 -80 72
-87 173 -4 49 -3 129 0 179 5 76 10 95 33 125 51 67 78 74 282 75 l182 0 48
-32z"/>
<path d="M3996 7364 c-33 -33 -38 -57 -37 -201 1 -184 14 -213 90 -213 38 0
59 27 71 90 13 67 13 214 0 261 -19 70 -85 103 -124 63z"/>
<path d="M4825 7356 c-30 -30 -39 -102 -33 -248 5 -97 8 -112 29 -134 35 -37
86 -30 116 15 21 31 23 45 23 173 0 104 -4 146 -15 168 -28 54 -80 65 -120 26z"/>
<path d="M4423 5844 l-43 -45 0 -99 0 -100 145 0 146 0 -3 143 -3 142 -100 2
-100 2 -42 -45z"/>
<path d="M4859 2778 c-20 -11 -47 -39 -60 -62 -22 -37 -24 -52 -24 -171 1
-147 9 -174 72 -222 l36 -28 167 0 c185 0 194 3 247 72 28 36 28 38 28 178 0
134 -1 143 -25 178 -47 68 -77 77 -251 76 -135 -1 -158 -3 -190 -21z"/>
<path d="M6910 2581 c-5 -11 -10 -71 -10 -135 0 -91 3 -118 16 -130 24 -24
315 -23 335 1 10 11 14 49 14 133 0 84 -4 122 -14 133 -11 15 -37 17 -172 17
-146 0 -159 -1 -169 -19z"/>
</g>
</svg>
